<svg width="50" height="50" viewBox="0 0 50 50" fill="none" xmlns="http://www.w3.org/2000/svg">
<path d="M40.8196 0H9.18042C4.11021 0 0 4.11021 0 9.18042V40.8196C0 45.8898 4.11021 50 9.18042 50H40.8196C45.8898 50 50 45.8898 50 40.8196V9.18042C50 4.11021 45.8898 0 40.8196 0Z" fill="#1B55F5"/>
<path d="M16.3082 15.0424L7.28279 24.4531C6.90574 24.8462 6.90574 25.4837 7.28279 25.8769L16.1791 35.1529C16.5562 35.5461 17.1676 35.5461 17.5447 35.1529L18.1255 34.5473C18.5026 34.1541 18.5026 33.5166 18.1255 33.1235L10.897 25.5865C10.6695 25.3492 10.6695 24.9702 10.897 24.7329L18.2274 17.0896C18.5943 16.7071 18.6045 16.0944 18.2546 15.6977L17.7009 15.0708C17.3307 14.6493 16.6955 14.6351 16.3082 15.0389V15.0424Z" fill="white"/>
<path d="M32.9697 14.748L42.5523 24.7395C42.7799 24.9768 42.7799 25.3558 42.5523 25.5931L33.109 35.4394C32.8814 35.6767 32.518 35.6767 32.2904 35.4394L31.1626 34.2635C30.935 34.0262 30.935 33.6472 31.1626 33.4099L38.6629 25.5896C38.8905 25.3523 38.8905 24.9733 38.6629 24.736L31.0709 16.82C30.8501 16.5898 30.8433 16.2214 31.0539 15.9841L32.1307 14.7658C32.3549 14.5143 32.732 14.5037 32.9663 14.748H32.9697Z" fill="white"/>
<path d="M26.9846 8.5819L23.1903 25.8448C23.1088 26.2238 23.3839 26.5815 23.7542 26.5815H30.6498C30.9691 26.5815 31.2273 26.3123 31.2273 25.9794V24.3253C31.2273 23.9924 30.9691 23.7232 30.6498 23.7232H27.2088C26.8385 23.7232 26.5634 23.369 26.6449 22.9901L29.607 8.844C29.6851 8.46856 29.4099 8.11084 29.0431 8.11084H27.5519C27.2835 8.11084 27.0491 8.30564 26.988 8.57836L26.9846 8.5819Z" fill="white"/>
<path d="M22.6807 30.3534L19.9225 41.2622C19.8409 41.581 20.1161 41.882 20.4864 41.882H21.9742C22.2425 41.882 22.4769 41.7191 22.5381 41.4853L25.3812 30.5765C25.4627 30.2577 25.1876 29.9531 24.8173 29.9531H23.2446C22.9728 29.9531 22.7385 30.1196 22.6807 30.3498V30.3534Z" fill="white"/>
</svg>
