<svg width="223" height="50" viewBox="0 0 223 50" fill="none" xmlns="http://www.w3.org/2000/svg">
<path d="M55.8333 15.1606H58.7292V32.3002H67.3035V34.8972H55.8306V15.1606H55.8333Z" fill="white"/>
<path d="M73.125 34.8972H70.329V15.1606H73.125V34.8972Z" fill="white"/>
<path d="M76.0614 30.7115C76.0614 27.3455 78.8439 26.6047 81.5236 26.2864C84.0251 25.9822 85.1057 25.9963 85.1057 24.9485V24.8696C85.1057 23.2275 84.1656 22.2726 82.3881 22.2726C80.6106 22.2726 79.4922 23.2923 79.0978 24.3007L76.4693 23.5852C77.4337 20.9347 79.8245 19.9038 82.3503 19.9038C84.6357 19.9038 87.9016 20.7911 87.9016 25.0696V34.8971H85.1948V32.869H85.0544C84.5087 34.0211 83.1607 35.2266 80.8618 35.2266C78.155 35.2266 76.0587 33.6239 76.0587 30.7086L76.0614 30.7115ZM85.1192 29.5594V27.6666C84.7005 28.0891 82.5394 28.3285 81.6776 28.4468C80.1027 28.6722 78.806 29.2271 78.806 30.7509C78.806 32.1564 79.9244 32.8831 81.4858 32.8831C83.7604 32.8831 85.1192 31.2945 85.1192 29.5594Z" fill="white"/>
<path d="M91.6647 20.0871H94.3201L94.385 22.8559C95.1089 20.8026 96.6974 19.8364 98.3858 19.8364C100.242 19.8364 101.46 20.9885 102.019 22.9489C102.743 20.949 104.496 19.8364 106.517 19.8364C109.032 19.8364 111.015 21.5462 111.015 24.9093V34.8973H108.208V25.2022C108.208 23.2277 107.001 22.394 105.553 22.394C103.786 22.394 102.719 23.653 102.719 25.4135V34.8973H99.9607V25.0163C99.9607 23.439 98.8693 22.394 97.37 22.394C95.8707 22.394 94.4606 23.5319 94.4606 25.6923V34.8973H91.6647V20.0871Z" fill="white"/>
<path d="M113.951 30.7115C113.951 27.3455 116.734 26.6047 119.413 26.2864C121.915 25.9822 122.995 25.9963 122.995 24.9485V24.8696C122.995 23.2275 122.055 22.2726 120.278 22.2726C118.5 22.2726 117.382 23.2923 116.988 24.3007L114.359 23.5852C115.323 20.9347 117.714 19.9038 120.24 19.9038C122.525 19.9038 125.791 20.7911 125.791 25.0696V34.8971H123.085V32.869H122.944C122.398 34.0211 121.05 35.2266 118.752 35.2266C116.045 35.2266 113.948 33.6239 113.948 30.7086L113.951 30.7115ZM123.009 29.5594V27.6666C122.59 28.0891 120.429 28.3285 119.567 28.4468C117.992 28.6722 116.696 29.2271 116.696 30.7509C116.696 32.1564 117.814 32.8831 119.376 32.8831C121.65 32.8831 123.009 31.2945 123.009 29.5594Z" fill="white"/>
<path d="M128.398 20.0869H131.345L132.907 26.2189C133.301 27.8075 133.771 29.689 134.204 31.9931C134.636 29.7679 135.092 27.8723 135.511 26.2189L137.075 20.0869H139.871L141.422 26.2189C141.816 27.8356 142.273 29.7172 142.705 31.9677C143.137 29.7284 143.583 27.861 143.988 26.2189L145.549 20.0869H148.521L144.239 34.8971H141.432L139.679 28.5257C139.247 26.9765 138.853 25.1879 138.461 23.4134C138.056 25.1879 137.648 27.0019 137.229 28.5257L135.476 34.8971H132.669L128.401 20.0869H128.398Z" fill="white"/>
<path d="M150.036 27.5707C150.036 22.9598 152.665 19.9009 156.668 19.9009C160.672 19.9009 163.311 22.9598 163.311 27.5707C163.311 32.1817 160.669 35.2011 156.668 35.2011C152.668 35.2011 150.036 32.1422 150.036 27.5707ZM160.477 27.5707C160.477 24.7371 159.259 22.3655 156.666 22.3655C154.072 22.3655 152.881 24.7231 152.881 27.5707C152.881 30.4184 154.099 32.7365 156.666 32.7365C159.232 32.7365 160.477 30.379 160.477 27.5707Z" fill="white"/>
<path d="M166.415 20.0871H169.122V22.47H169.273C169.794 20.8533 171.205 19.873 172.869 19.873C173.225 19.873 173.757 19.9125 174.049 19.9519V22.7348C173.847 22.6813 173.171 22.5771 172.588 22.5771C170.632 22.5771 169.208 23.9544 169.208 25.9008V34.8945H166.412V20.0843L166.415 20.0871Z" fill="white"/>
<path d="M180.581 27.292L176.021 20.0869H179.171L180.773 22.7769C181.383 23.8106 181.853 24.7626 182.31 25.678C182.756 24.7626 183.199 23.8106 183.823 22.7769L185.463 20.0869H188.561L183.936 27.399L188.777 34.8971H185.638L183.734 31.7452C183.137 30.765 182.68 29.8383 182.221 28.9623C181.802 29.8355 181.37 30.765 180.773 31.7452L178.841 34.8971H175.729L180.581 27.2948V27.292Z" fill="white"/>
<path d="M39.1487 0H8.80464C3.94197 0 0 4.11021 0 9.18042V40.8196C0 45.8898 3.94197 50 8.80464 50H39.1487C44.0114 50 47.9534 45.8898 47.9534 40.8196V9.18042C47.9534 4.11021 44.0114 0 39.1487 0Z" fill="#1B55F5"/>
<path d="M15.4251 15.0424L6.39967 24.4531C6.02262 24.8462 6.02262 25.4837 6.39967 25.8769L15.296 35.1529C15.6731 35.5461 16.2845 35.5461 16.6616 35.1529L17.2424 34.5473C17.6195 34.1541 17.6195 33.5166 17.2424 33.1235L10.0139 25.5865C9.78633 25.3492 9.78633 24.9702 10.0139 24.7329L17.3443 17.0896C17.7112 16.7071 17.7214 16.0944 17.3715 15.6977L16.8178 15.0708C16.4476 14.6493 15.8123 14.6351 15.4251 15.0389V15.0424Z" fill="white"/>
<path d="M32.0867 14.748L41.6692 24.7395C41.8968 24.9768 41.8968 25.3558 41.6692 25.5931L32.226 35.4394C31.9984 35.6767 31.6349 35.6767 31.4073 35.4394L30.2796 34.2635C30.052 34.0262 30.052 33.6472 30.2796 33.4099L37.7798 25.5896C38.0074 25.3523 38.0074 24.9733 37.7798 24.736L30.1878 16.82C29.9671 16.5898 29.9603 16.2214 30.1709 15.9841L31.2477 14.7658C31.4719 14.5143 31.8489 14.5037 32.0833 14.748H32.0867Z" fill="white"/>
<path d="M26.1014 8.5819L22.3071 25.8448C22.2256 26.2238 22.5007 26.5815 22.871 26.5815H29.7666C30.0859 26.5815 30.3441 26.3123 30.3441 25.9794V24.3253C30.3441 23.9924 30.0859 23.7232 29.7666 23.7232H26.3256C25.9553 23.7232 25.6802 23.369 25.7617 22.9901L28.7238 8.844C28.8019 8.46856 28.5268 8.11084 28.1599 8.11084H26.6687C26.4003 8.11084 26.1659 8.30564 26.1048 8.57836L26.1014 8.5819Z" fill="white"/>
<path d="M21.7976 30.3534L19.0394 41.2622C18.9578 41.581 19.233 41.882 19.6032 41.882H21.0911C21.3594 41.882 21.5938 41.7191 21.6549 41.4853L24.4981 30.5765C24.5796 30.2577 24.3045 29.9531 23.9342 29.9531H22.3615C22.0897 29.9531 21.8553 30.1196 21.7976 30.3498V30.3534Z" fill="white"/>
</svg>
