<svg width="20" height="20" viewBox="0 0 20 20" fill="none" xmlns="http://www.w3.org/2000/svg">
<path d="M10.7609 14.1667H16.7392M10.7609 14.1667L9.16669 17.5M10.7609 14.1667L13.1486 9.17419C13.341 8.77189 13.4372 8.57075 13.5688 8.50718C13.6833 8.4519 13.8167 8.4519 13.9312 8.50718C14.0628 8.57075 14.159 8.77189 14.3514 9.17419L16.7392 14.1667M16.7392 14.1667L18.3334 17.5M1.66669 4.16667H6.66669M6.66669 4.16667H9.58335M6.66669 4.16667V2.5M9.58335 4.16667H11.6667M9.58335 4.16667C9.16991 6.63107 8.21051 8.86349 6.80465 10.737M8.33335 11.6667C7.82292 11.4373 7.30223 11.1184 6.80465 10.737M6.80465 10.737C5.67754 9.87314 4.66899 8.68886 4.16669 7.5M6.80465 10.737C5.4674 12.5191 3.72622 13.9765 1.66669 15" stroke="#344054" stroke-width="1.66667" stroke-linecap="round" stroke-linejoin="round"/>
</svg>
