<svg width="166" height="32" viewBox="0 0 166 32" fill="none" xmlns="http://www.w3.org/2000/svg">
<path d="M22.011 3.24807V4.80989L23.5703 3.24807H22.011ZM7.46976 28.1863L10.1352 25.5098L10.6233 26L7.95791 28.6765L7.46976 28.1863ZM5.51714 28.1843L10.1312 23.5524L10.6161 24.04L6.002 28.6718L5.51648 28.1843H5.51714ZM5 26.7482L10.1292 21.597L10.6174 22.0872L5.48881 27.2383L5 26.7482ZM5 24.7928L10.1292 19.6416L10.6174 20.1318L5.48881 25.2829L5 24.7928ZM5 22.8373L10.1299 17.6862L10.6181 18.1763L5.48815 23.3275L5 22.8373ZM10.3756 28.4311V26.8653L8.8163 28.4311H10.3756ZM21.7692 13.5008L26.8984 8.34896L27.384 8.83649L22.2541 13.987L21.7685 13.5008H21.7692ZM21.7692 11.5454L26.8984 6.39354L27.384 6.88107L22.2534 12.0316L21.7685 11.5454H21.7692ZM21.7685 9.58995L26.8991 4.43812L27.3846 4.92565L22.2534 10.0768L21.7685 9.58929V9.58995ZM21.7685 7.63453L26.382 3.00198L26.8675 3.48952L22.2541 8.1214L21.7685 7.63387V7.63453ZM21.7633 5.67647L24.4293 3L24.9149 3.48753L22.2488 6.164L21.7633 5.67647ZM10.3756 14.931C10.3756 14.5638 10.3756 14.1656 10.3401 13.7449C10.3045 13.3242 10.2867 12.8949 10.2551 12.4609L12.0819 14.7788L15.7269 11.1187L10.2379 4.14706C10.1009 3.98697 9.95137 3.83747 9.79261 3.69988C9.67337 3.59205 9.5403 3.50209 9.39603 3.4313C9.25373 3.3678 9.10419 3.32414 8.95069 3.30165C8.73791 3.2699 8.5238 3.25203 8.30904 3.24807H5.24704V21.6473L10.3763 16.4968V14.931H10.3756ZM15.8316 19.6211L19.5438 15.8935L20.0294 16.381L16.3171 20.1086L15.8316 19.6211ZM14.9772 18.5243L18.6894 14.7967L19.1749 15.2842L15.4627 19.0118L14.9772 18.5243ZM14.1247 17.4295L17.8369 13.7019L18.3251 14.1921L14.6129 17.9197L14.1247 17.4295ZM13.271 16.3314L16.9226 12.664L17.4081 13.1515L13.7565 16.8183L13.271 16.3314ZM12.4152 15.2273L16.1274 11.4997L16.6156 11.9899L12.9034 15.7175L12.4152 15.2273Z" fill="white"/>
<path d="M22.2352 15.4015V16.7958C22.2352 17.1994 22.2352 17.6294 22.2709 18.0867C22.3066 18.544 22.3291 19.0098 22.3741 19.4989L20.5086 17.1324L16.8499 20.7991L22.3066 27.7071C22.5394 28.0298 22.8462 28.2909 23.2013 28.4692C23.5637 28.6143 23.9518 28.6846 24.342 28.6753H27.3838V10.2417L22.2352 15.4015Z" fill="#D22B27"/>
<g clip-path="url(#clip0_487_13884)">
<path d="M54.0598 6.18359V7.33926L55.2575 6.18359H54.0598ZM42.8961 24.6366L44.9429 22.6556L44.9402 23.3834L43.587 24.693L42.8961 24.6366ZM41.3968 24.6357L44.9392 21.2081V21.8482L42.0369 24.5892L41.3968 24.6349V24.6357ZM41.3746 23.1023L44.9383 19.7615V20.4875L41.3755 23.9357V23.1023H41.3746ZM41.3968 21.7417L44.9383 18.3141V19.04L41.3755 22.4882L41.3968 21.7417ZM41.3968 20.4025L44.9383 16.8666L44.9235 17.6069L41.3746 21.0416L41.3968 20.4025ZM45.127 24.8175V23.6582L43.9292 24.8175H45.127ZM54.2466 13.5893L57.8121 9.95763V10.5314L54.2466 14.13V13.5893ZM54.2466 12.2448L57.8121 8.51104L57.6827 9.08932L54.2466 12.6825V12.2448ZM54.4001 10.8027L57.8121 7.06444L57.6827 7.72329L54.2457 11.2368L54.3992 10.8027H54.4001ZM54.4334 9.33907L57.4135 6.45483L57.7881 6.36263L54.2466 9.79024L54.4334 9.33907ZM54.4556 7.9623L55.8893 6.56315L56.2879 6.36084L54.2411 8.34185L54.4547 7.9623H54.4556ZM45.127 14.8283C45.127 14.557 45.127 14.2625 45.0992 13.951C45.0715 13.6395 45.0585 13.3217 45.0345 13.0003L46.4367 14.7155L49.2354 12.0067L45.0206 6.84871C44.9152 6.73054 44.8005 6.61954 44.6784 6.51749C44.5868 6.43782 44.4842 6.37068 44.3741 6.31876C44.265 6.27222 44.1503 6.23999 44.0319 6.22298C43.8691 6.19971 43.7045 6.18628 43.5389 6.18359H41.1896V19.7982L45.127 15.9875V14.8283ZM49.4491 18.2156L51.9528 15.7467L52.2285 16.0815L49.7747 18.519L49.4491 18.2156ZM48.8091 17.418L51.3267 14.9061L51.6726 15.2096L49.032 17.8486L48.8091 17.418ZM48.1117 16.581L50.5923 14.3493L50.8929 14.566L48.3799 17.0393L48.1117 16.5801V16.581ZM47.4901 15.7288L50.0346 13.2653L50.1835 13.7433L47.7223 16.2247L47.4901 15.7288ZM46.7465 15.0145L49.2364 12.6834L49.5231 12.9421L47.0684 15.411L46.7465 15.0145Z" fill="white"/>
<path d="M54.0597 15.0134V16.0428C54.0597 16.3409 54.0597 16.6587 54.0875 16.9962C54.1152 17.3337 54.1319 17.6783 54.1661 18.0391L52.7399 16.2908L49.9411 18.9996L54.1143 24.102C54.2919 24.3402 54.5268 24.5335 54.7987 24.6651C55.0762 24.7725 55.3731 24.8245 55.6709 24.8173H57.9971V11.2026L54.0597 15.0134Z" fill="white"/>
<path d="M67.2564 24.0323C65.1457 24.0323 63.5068 23.4889 62.3405 22.4022C61.1695 21.3155 60.584 19.7695 60.584 17.7643C60.584 15.692 61.126 14.1013 62.21 12.994C63.2894 11.8857 64.8349 11.3325 66.8457 11.3325C68.7519 11.3325 70.2253 11.815 71.2658 12.7791C72.3064 13.7396 72.8262 15.128 72.8262 16.9434V18.8269H65.0051C65.0356 19.5135 65.2965 20.0506 65.7885 20.4382C66.2759 20.8303 66.94 21.0254 67.7799 21.0254C68.5503 21.0254 69.2579 20.9538 69.9016 20.8106C70.55 20.6718 71.251 20.431 72.0039 20.09V23.1353C71.3158 23.4764 70.6064 23.71 69.8757 23.8372C69.1441 23.9679 68.2719 24.0332 67.2573 24.0332L67.2564 24.0323ZM66.9946 14.2132C66.4813 14.2132 66.0521 14.3689 65.7081 14.6805C65.3603 14.9965 65.155 15.4897 65.0939 16.1593H68.8546C68.8417 15.5694 68.6678 15.0976 68.332 14.744C68.0009 14.3904 67.5551 14.2132 66.9937 14.2132H66.9946Z" fill="white"/>
<path d="M74.9489 23.8174L79.036 17.5557L75.1644 11.5464H80.133L82.0586 14.9901L84.0241 11.5464H89.0057L85.0295 17.5557L89.162 23.8174H84.1933L82.0586 20.089L79.9304 23.8174H74.9489Z" fill="white"/>
<path d="M103.253 23.8174H100.224L99.3813 22.1935H99.2962C98.7043 22.9016 98.104 23.3859 97.4945 23.6473C96.8804 23.9042 96.0886 24.0331 95.1184 24.0331C93.9262 24.0331 92.9874 23.6876 92.3048 22.9965C91.6167 22.3019 91.2736 21.3261 91.2736 20.0711C91.2736 18.765 91.7434 17.792 92.684 17.1519C93.6238 16.5119 94.9843 16.1538 96.7648 16.0777L98.88 16.0079V15.8369C98.88 14.8263 98.3667 14.3205 97.3391 14.3205C96.4124 14.3205 95.2368 14.624 93.8134 15.23L92.5472 12.4371C94.027 11.6995 95.8916 11.3315 98.142 11.3315C99.7698 11.3315 101.03 11.7209 101.922 12.5006C102.81 13.2803 103.254 14.3706 103.254 15.7734V23.8174H103.253ZM96.9793 21.0433C97.5102 21.0433 97.9634 20.8812 98.3371 20.5563C98.7154 20.2322 98.905 19.8106 98.905 19.2923V18.338L97.8931 18.3819C96.4568 18.432 95.739 18.9441 95.739 19.9171C95.739 20.6673 96.1525 21.0415 96.9793 21.0415V21.0433Z" fill="white"/>
<path d="M110.013 6.96484V23.8173H105.633V6.96484H110.013Z" fill="white"/>
<path d="M119.295 20.6898C119.882 20.6898 120.588 20.5484 121.41 20.2664V23.3502C120.818 23.5991 120.257 23.7737 119.726 23.8748C119.19 23.9804 118.566 24.0324 117.852 24.0324C116.38 24.0324 115.321 23.685 114.672 22.9895C114.024 22.2904 113.699 21.2206 113.699 19.7794V14.7181H112.165V12.9994L114.111 11.6665L115.24 9.08838H118.106V11.5465H121.214V14.719H118.106V19.4956C118.106 20.2914 118.502 20.6898 119.295 20.6898Z" fill="white"/>
<path d="M136.572 17.657C136.572 19.6622 136.015 21.2269 134.901 22.3522C133.782 23.4729 132.219 24.0333 130.213 24.0333C128.289 24.0333 126.76 23.4604 125.624 22.3146C124.483 21.1643 123.914 19.612 123.914 17.6579C123.914 15.6572 124.473 14.1023 125.591 12.9949C126.706 11.8867 128.27 11.3335 130.285 11.3335C131.53 11.3335 132.629 11.5886 133.583 12.098C134.54 12.6118 135.278 13.3467 135.796 14.3037C136.314 15.2597 136.573 16.3787 136.573 17.6588L136.572 17.657ZM128.359 17.657C128.359 18.7097 128.505 19.5127 128.796 20.0641C129.088 20.6155 129.575 20.8921 130.259 20.8921C130.937 20.8921 131.417 20.6164 131.695 20.0641C131.978 19.5127 132.119 18.7097 132.119 17.657C132.119 16.6078 131.978 15.8165 131.695 15.2812C131.407 14.7504 130.923 14.4854 130.239 14.4854C129.569 14.4854 129.088 14.7504 128.796 15.2812C128.505 15.812 128.359 16.6043 128.359 17.657Z" fill="white"/>
<path d="M146.588 11.3315C146.966 11.3315 147.328 11.361 147.672 11.4201L147.92 11.4577L147.528 15.4573C147.166 15.3687 146.67 15.3248 146.039 15.3248C145.082 15.3248 144.387 15.5379 143.956 15.9631C143.525 16.3847 143.31 16.9907 143.31 17.783V23.8173H138.93V11.5463H142.187L142.872 13.5049H143.082C143.447 12.8559 143.956 12.3314 144.609 11.9312C145.262 11.5311 145.922 11.3306 146.588 11.3306V11.3315Z" fill="white"/>
<path d="M160 20.0514C160 21.3619 159.538 22.3538 158.616 23.0278C157.69 23.6974 156.36 24.0322 154.627 24.0322C153.687 24.0322 152.871 23.9839 152.179 23.8872C151.487 23.7905 150.778 23.6115 150.051 23.3501V19.9628C150.73 20.2492 151.474 20.4874 152.283 20.6771C153.093 20.8669 153.815 20.9618 154.451 20.9618C155.4 20.9618 155.875 20.7514 155.875 20.3298C155.875 20.115 155.742 19.9216 155.476 19.7488C155.211 19.5805 154.44 19.252 153.165 18.7633C151.999 18.2996 151.185 17.7732 150.723 17.1833C150.262 16.5978 150.031 15.8522 150.031 14.9462C150.031 13.8049 150.486 12.9178 151.396 12.2858C152.306 11.6493 153.591 11.3315 155.254 11.3315C156.09 11.3315 156.876 11.4202 157.611 11.5965C158.346 11.7738 159.11 12.0307 159.903 12.3673L158.714 15.0966C158.131 14.8442 157.516 14.6294 156.866 14.4521C156.218 14.2749 155.689 14.1871 155.28 14.1871C154.562 14.1871 154.203 14.3581 154.203 14.6992C154.203 14.9095 154.328 15.0886 154.581 15.2363C154.829 15.384 155.549 15.6848 156.742 16.1395C157.629 16.4931 158.294 16.8386 158.733 17.1761C159.169 17.5172 159.488 17.9173 159.693 18.3765C159.898 18.8358 160 19.3935 160 20.0514Z" fill="white"/>
<path d="M45.127 15.9873H41.1896V24.8182H45.127V15.9873Z" fill="white"/>
<path d="M57.998 6.18164H54.0607V15.0125H57.998V6.18164Z" fill="white"/>
<path d="M46.1221 14.3305L50.1233 19.2235L52.9221 16.5165L49.0134 11.7354L46.1221 14.3305Z" fill="white"/>
</g>
<defs>
<clipPath id="clip0_487_13884">
<rect width="119" height="19" fill="white" transform="translate(41 6)"/>
</clipPath>
</defs>
</svg>
